<mxfile host="app.diagrams.net" modified="2023-07-14T23:33:19.435Z" agent="Mozilla/5.0 (Windows NT 10.0; Win64; x64) AppleWebKit/537.36 (KHTML, like Gecko) Chrome/114.0.0.0 Safari/537.36" etag="ksy2UBhBQyxIPhfV8ub6" version="21.6.2" type="google">
  <diagram name="PÃ¡gina-1" id="O0N0Nwt1bPWEmegG6vSG">
    <mxGraphModel grid="1" page="1" gridSize="10" guides="1" tooltips="1" connect="1" arrows="1" fold="1" pageScale="1" pageWidth="827" pageHeight="1169" math="0" shadow="0">
      <root>
        <mxCell id="0" />
        <mxCell id="1" parent="0" />
        <mxCell id="YCMlPNBW1ywjKCrmXprJ-1" value="Sistema" style="shape=umlLifeline;perimeter=lifelinePerimeter;whiteSpace=wrap;html=1;container=1;dropTarget=0;collapsible=0;recursiveResize=0;outlineConnect=0;portConstraint=eastwest;newEdgeStyle={&quot;edgeStyle&quot;:&quot;elbowEdgeStyle&quot;,&quot;elbow&quot;:&quot;vertical&quot;,&quot;curved&quot;:0,&quot;rounded&quot;:0};" vertex="1" parent="1">
          <mxGeometry x="364" y="300" width="100" height="1560" as="geometry" />
        </mxCell>
        <mxCell id="YCMlPNBW1ywjKCrmXprJ-2" value="" style="html=1;points=[];perimeter=orthogonalPerimeter;outlineConnect=0;targetShapes=umlLifeline;portConstraint=eastwest;newEdgeStyle={&quot;edgeStyle&quot;:&quot;elbowEdgeStyle&quot;,&quot;elbow&quot;:&quot;vertical&quot;,&quot;curved&quot;:0,&quot;rounded&quot;:0};" vertex="1" parent="YCMlPNBW1ywjKCrmXprJ-1">
          <mxGeometry x="45" y="60" width="10" height="1020" as="geometry" />
        </mxCell>
        <mxCell id="YCMlPNBW1ywjKCrmXprJ-47" value="" style="html=1;points=[];perimeter=orthogonalPerimeter;outlineConnect=0;targetShapes=umlLifeline;portConstraint=eastwest;newEdgeStyle={&quot;edgeStyle&quot;:&quot;elbowEdgeStyle&quot;,&quot;elbow&quot;:&quot;vertical&quot;,&quot;curved&quot;:0,&quot;rounded&quot;:0};" vertex="1" parent="YCMlPNBW1ywjKCrmXprJ-1">
          <mxGeometry x="45" y="1430" width="10" height="80" as="geometry" />
        </mxCell>
        <mxCell id="YCMlPNBW1ywjKCrmXprJ-3" value="" style="shape=umlLifeline;perimeter=lifelinePerimeter;whiteSpace=wrap;html=1;container=1;dropTarget=0;collapsible=0;recursiveResize=0;outlineConnect=0;portConstraint=eastwest;newEdgeStyle={&quot;edgeStyle&quot;:&quot;elbowEdgeStyle&quot;,&quot;elbow&quot;:&quot;vertical&quot;,&quot;curved&quot;:0,&quot;rounded&quot;:0};participant=umlActor;" vertex="1" parent="1">
          <mxGeometry x="-220" y="300" width="20" height="1540" as="geometry" />
        </mxCell>
        <mxCell id="YCMlPNBW1ywjKCrmXprJ-4" value="" style="html=1;points=[];perimeter=orthogonalPerimeter;outlineConnect=0;targetShapes=umlLifeline;portConstraint=eastwest;newEdgeStyle={&quot;edgeStyle&quot;:&quot;elbowEdgeStyle&quot;,&quot;elbow&quot;:&quot;vertical&quot;,&quot;curved&quot;:0,&quot;rounded&quot;:0};" vertex="1" parent="YCMlPNBW1ywjKCrmXprJ-3">
          <mxGeometry x="5" y="640" width="10" height="440" as="geometry" />
        </mxCell>
        <mxCell id="YCMlPNBW1ywjKCrmXprJ-46" value="" style="html=1;points=[];perimeter=orthogonalPerimeter;outlineConnect=0;targetShapes=umlLifeline;portConstraint=eastwest;newEdgeStyle={&quot;edgeStyle&quot;:&quot;elbowEdgeStyle&quot;,&quot;elbow&quot;:&quot;vertical&quot;,&quot;curved&quot;:0,&quot;rounded&quot;:0};" vertex="1" parent="YCMlPNBW1ywjKCrmXprJ-3">
          <mxGeometry x="5" y="1320" width="10" height="120" as="geometry" />
        </mxCell>
        <mxCell id="YCMlPNBW1ywjKCrmXprJ-5" value="Base de Datos" style="shape=umlLifeline;perimeter=lifelinePerimeter;whiteSpace=wrap;html=1;container=1;dropTarget=0;collapsible=0;recursiveResize=0;outlineConnect=0;portConstraint=eastwest;newEdgeStyle={&quot;edgeStyle&quot;:&quot;elbowEdgeStyle&quot;,&quot;elbow&quot;:&quot;vertical&quot;,&quot;curved&quot;:0,&quot;rounded&quot;:0};" vertex="1" parent="1">
          <mxGeometry x="727" y="300" width="100" height="1580" as="geometry" />
        </mxCell>
        <mxCell id="YCMlPNBW1ywjKCrmXprJ-6" value="" style="html=1;points=[];perimeter=orthogonalPerimeter;outlineConnect=0;targetShapes=umlLifeline;portConstraint=eastwest;newEdgeStyle={&quot;edgeStyle&quot;:&quot;elbowEdgeStyle&quot;,&quot;elbow&quot;:&quot;vertical&quot;,&quot;curved&quot;:0,&quot;rounded&quot;:0};" vertex="1" parent="YCMlPNBW1ywjKCrmXprJ-5">
          <mxGeometry x="45" y="160" width="10" height="80" as="geometry" />
        </mxCell>
        <mxCell id="YCMlPNBW1ywjKCrmXprJ-7" value="" style="html=1;points=[];perimeter=orthogonalPerimeter;outlineConnect=0;targetShapes=umlLifeline;portConstraint=eastwest;newEdgeStyle={&quot;edgeStyle&quot;:&quot;elbowEdgeStyle&quot;,&quot;elbow&quot;:&quot;vertical&quot;,&quot;curved&quot;:0,&quot;rounded&quot;:0};" vertex="1" parent="YCMlPNBW1ywjKCrmXprJ-5">
          <mxGeometry x="45" y="970" width="10" height="80" as="geometry" />
        </mxCell>
        <mxCell id="YCMlPNBW1ywjKCrmXprJ-8" value="" style="shape=umlLifeline;perimeter=lifelinePerimeter;whiteSpace=wrap;html=1;container=1;dropTarget=0;collapsible=0;recursiveResize=0;outlineConnect=0;portConstraint=eastwest;newEdgeStyle={&quot;edgeStyle&quot;:&quot;elbowEdgeStyle&quot;,&quot;elbow&quot;:&quot;vertical&quot;,&quot;curved&quot;:0,&quot;rounded&quot;:0};participant=umlActor;" vertex="1" parent="1">
          <mxGeometry x="70" y="300" width="20" height="1530" as="geometry" />
        </mxCell>
        <mxCell id="YCMlPNBW1ywjKCrmXprJ-9" value="" style="html=1;points=[];perimeter=orthogonalPerimeter;outlineConnect=0;targetShapes=umlLifeline;portConstraint=eastwest;newEdgeStyle={&quot;edgeStyle&quot;:&quot;elbowEdgeStyle&quot;,&quot;elbow&quot;:&quot;vertical&quot;,&quot;curved&quot;:0,&quot;rounded&quot;:0};" vertex="1" parent="YCMlPNBW1ywjKCrmXprJ-8">
          <mxGeometry x="5" y="80" width="10" height="470" as="geometry" />
        </mxCell>
        <mxCell id="YCMlPNBW1ywjKCrmXprJ-10" value="Empleado" style="text;html=1;align=center;verticalAlign=middle;resizable=0;points=[];autosize=1;strokeColor=none;fillColor=none;fontSize=14;" vertex="1" parent="1">
          <mxGeometry x="-255" y="340" width="90" height="30" as="geometry" />
        </mxCell>
        <mxCell id="YCMlPNBW1ywjKCrmXprJ-11" value="Gerente" style="text;html=1;align=center;verticalAlign=middle;resizable=0;points=[];autosize=1;strokeColor=none;fillColor=none;fontSize=14;" vertex="1" parent="1">
          <mxGeometry x="45" y="340" width="70" height="30" as="geometry" />
        </mxCell>
        <mxCell id="YCMlPNBW1ywjKCrmXprJ-12" value="return(valor)" style="html=1;verticalAlign=bottom;endArrow=open;dashed=1;endSize=8;edgeStyle=elbowEdgeStyle;elbow=vertical;curved=0;rounded=0;" edge="1" parent="1" source="YCMlPNBW1ywjKCrmXprJ-5" target="YCMlPNBW1ywjKCrmXprJ-1">
          <mxGeometry relative="1" as="geometry">
            <mxPoint x="670" y="500" as="sourcePoint" />
            <mxPoint x="470" y="500" as="targetPoint" />
            <Array as="points">
              <mxPoint x="530" y="510" />
              <mxPoint x="640" y="560" />
              <mxPoint x="470" y="490" />
              <mxPoint x="596" y="500" />
            </Array>
          </mxGeometry>
        </mxCell>
        <mxCell id="YCMlPNBW1ywjKCrmXprJ-13" value="Ingresar_mercaderia(cod_prod)" style="endArrow=block;endFill=1;html=1;edgeStyle=orthogonalEdgeStyle;align=left;verticalAlign=top;rounded=0;" edge="1" parent="1">
          <mxGeometry x="-0.4216" y="20" relative="1" as="geometry">
            <mxPoint x="85" y="530" as="sourcePoint" />
            <mxPoint x="413.5" y="530" as="targetPoint" />
            <Array as="points">
              <mxPoint x="350" y="530" />
              <mxPoint x="350" y="530" />
            </Array>
            <mxPoint as="offset" />
          </mxGeometry>
        </mxCell>
        <mxCell id="YCMlPNBW1ywjKCrmXprJ-14" value="mensaje_ingrese_mercaderia()" style="endArrow=block;endFill=1;html=1;edgeStyle=orthogonalEdgeStyle;align=left;verticalAlign=top;rounded=0;" edge="1" parent="1">
          <mxGeometry x="0.4216" y="-20" relative="1" as="geometry">
            <mxPoint x="413.5" y="480" as="sourcePoint" />
            <mxPoint x="85" y="480" as="targetPoint" />
            <Array as="points">
              <mxPoint x="350" y="480" />
              <mxPoint x="350" y="480" />
            </Array>
            <mxPoint as="offset" />
          </mxGeometry>
        </mxCell>
        <mxCell id="YCMlPNBW1ywjKCrmXprJ-15" value="Ingresar_de_cantidad(cant)" style="endArrow=block;endFill=1;html=1;edgeStyle=orthogonalEdgeStyle;align=left;verticalAlign=top;rounded=0;" edge="1" parent="1">
          <mxGeometry x="-0.4225" y="25" relative="1" as="geometry">
            <mxPoint x="85" y="600" as="sourcePoint" />
            <mxPoint x="414" y="600" as="targetPoint" />
            <Array as="points">
              <mxPoint x="250" y="600" />
              <mxPoint x="250" y="600" />
            </Array>
            <mxPoint y="1" as="offset" />
          </mxGeometry>
        </mxCell>
        <mxCell id="YCMlPNBW1ywjKCrmXprJ-16" value="mensaje_ingresar_cantidad()" style="endArrow=block;endFill=1;html=1;edgeStyle=orthogonalEdgeStyle;align=left;verticalAlign=top;rounded=0;" edge="1" parent="1">
          <mxGeometry x="0.4225" y="-20" relative="1" as="geometry">
            <mxPoint x="414" y="560" as="sourcePoint" />
            <mxPoint x="85" y="560" as="targetPoint" />
            <Array as="points">
              <mxPoint x="170" y="560" />
              <mxPoint x="170" y="560" />
            </Array>
            <mxPoint as="offset" />
          </mxGeometry>
        </mxCell>
        <mxCell id="YCMlPNBW1ywjKCrmXprJ-17" value="Ingresar_producto(cod_prod)" style="endArrow=block;endFill=1;html=1;edgeStyle=orthogonalEdgeStyle;align=left;verticalAlign=top;rounded=0;" edge="1" parent="1" source="YCMlPNBW1ywjKCrmXprJ-2" target="YCMlPNBW1ywjKCrmXprJ-5">
          <mxGeometry x="-0.4216" y="20" relative="1" as="geometry">
            <mxPoint x="420" y="460" as="sourcePoint" />
            <mxPoint x="749" y="480" as="targetPoint" />
            <Array as="points">
              <mxPoint x="510" y="490" />
              <mxPoint x="510" y="490" />
            </Array>
            <mxPoint as="offset" />
          </mxGeometry>
        </mxCell>
        <mxCell id="YCMlPNBW1ywjKCrmXprJ-18" value="mensaje_consultar_producto()" style="endArrow=block;endFill=1;html=1;edgeStyle=orthogonalEdgeStyle;align=left;verticalAlign=top;rounded=0;" edge="1" parent="1">
          <mxGeometry x="0.4225" y="-20" relative="1" as="geometry">
            <mxPoint x="414" y="1080" as="sourcePoint" />
            <mxPoint x="-210" y="1080" as="targetPoint" />
            <Array as="points">
              <mxPoint x="290.5" y="1080" />
              <mxPoint x="290.5" y="1080" />
            </Array>
            <mxPoint as="offset" />
          </mxGeometry>
        </mxCell>
        <mxCell id="YCMlPNBW1ywjKCrmXprJ-19" value="Consultar_producto(codigo)" style="endArrow=block;endFill=1;html=1;edgeStyle=orthogonalEdgeStyle;align=left;verticalAlign=top;rounded=0;" edge="1" parent="1" source="YCMlPNBW1ywjKCrmXprJ-3" target="YCMlPNBW1ywjKCrmXprJ-1">
          <mxGeometry x="-0.4341" y="20" relative="1" as="geometry">
            <mxPoint x="-200" y="1110" as="sourcePoint" />
            <mxPoint x="390" y="1110" as="targetPoint" />
            <Array as="points">
              <mxPoint x="-60" y="1120" />
              <mxPoint x="-60" y="1120" />
            </Array>
            <mxPoint as="offset" />
          </mxGeometry>
        </mxCell>
        <mxCell id="YCMlPNBW1ywjKCrmXprJ-20" value="mensaje_terminar_nuevo_pedido(lista_productos)" style="endArrow=block;endFill=1;html=1;edgeStyle=orthogonalEdgeStyle;align=left;verticalAlign=top;rounded=0;" edge="1" parent="1">
          <mxGeometry x="0.4225" y="-20" relative="1" as="geometry">
            <mxPoint x="414" y="1169" as="sourcePoint" />
            <mxPoint x="-205" y="1169" as="targetPoint" />
            <Array as="points">
              <mxPoint x="130" y="1169" />
              <mxPoint x="130" y="1169" />
            </Array>
            <mxPoint as="offset" />
          </mxGeometry>
        </mxCell>
        <mxCell id="YCMlPNBW1ywjKCrmXprJ-21" value="Generar_nuevo_pedido(lista_producto)" style="endArrow=block;endFill=1;html=1;edgeStyle=orthogonalEdgeStyle;align=left;verticalAlign=top;rounded=0;" edge="1" parent="1">
          <mxGeometry x="-0.4341" y="20" relative="1" as="geometry">
            <mxPoint x="-205" y="1220" as="sourcePoint" />
            <mxPoint x="414" y="1220" as="targetPoint" />
            <Array as="points">
              <mxPoint x="140" y="1220" />
              <mxPoint x="140" y="1220" />
            </Array>
            <mxPoint as="offset" />
          </mxGeometry>
        </mxCell>
        <mxCell id="YCMlPNBW1ywjKCrmXprJ-22" value="mensaje_de_egresos_de_caja ()" style="endArrow=block;endFill=1;html=1;edgeStyle=orthogonalEdgeStyle;align=left;verticalAlign=top;rounded=0;" edge="1" parent="1">
          <mxGeometry x="0.4225" y="-20" relative="1" as="geometry">
            <mxPoint x="414" y="1290" as="sourcePoint" />
            <mxPoint x="-205" y="1290" as="targetPoint" />
            <Array as="points">
              <mxPoint x="130" y="1290" />
              <mxPoint x="130" y="1290" />
            </Array>
            <mxPoint as="offset" />
          </mxGeometry>
        </mxCell>
        <mxCell id="YCMlPNBW1ywjKCrmXprJ-23" value="recibir_paquete" style="endArrow=block;endFill=1;html=1;edgeStyle=orthogonalEdgeStyle;align=left;verticalAlign=top;rounded=0;" edge="1" parent="1" target="YCMlPNBW1ywjKCrmXprJ-46">
          <mxGeometry x="-0.4341" y="20" relative="1" as="geometry">
            <mxPoint x="-595.5" y="1665" as="sourcePoint" />
            <mxPoint x="54" y="1690" as="targetPoint" />
            <Array as="points">
              <mxPoint x="-505" y="1665" />
              <mxPoint x="-505" y="1665" />
            </Array>
            <mxPoint as="offset" />
          </mxGeometry>
        </mxCell>
        <mxCell id="YCMlPNBW1ywjKCrmXprJ-24" value="mensaje_cambiar_precio(cod_prod)" style="endArrow=block;endFill=1;html=1;edgeStyle=orthogonalEdgeStyle;align=left;verticalAlign=top;rounded=0;" edge="1" parent="1">
          <mxGeometry x="0.4225" y="-20" relative="1" as="geometry">
            <mxPoint x="414" y="670" as="sourcePoint" />
            <mxPoint x="85" y="670" as="targetPoint" />
            <Array as="points">
              <mxPoint x="170" y="670" />
              <mxPoint x="170" y="670" />
            </Array>
            <mxPoint as="offset" />
          </mxGeometry>
        </mxCell>
        <mxCell id="YCMlPNBW1ywjKCrmXprJ-25" value="Ingresar_de_cantidad(cant)" style="endArrow=block;endFill=1;html=1;edgeStyle=orthogonalEdgeStyle;align=left;verticalAlign=top;rounded=0;" edge="1" parent="1">
          <mxGeometry x="-0.4225" y="25" relative="1" as="geometry">
            <mxPoint x="85" y="640" as="sourcePoint" />
            <mxPoint x="414" y="640" as="targetPoint" />
            <Array as="points">
              <mxPoint x="250" y="640" />
              <mxPoint x="250" y="640" />
            </Array>
            <mxPoint y="1" as="offset" />
          </mxGeometry>
        </mxCell>
        <mxCell id="YCMlPNBW1ywjKCrmXprJ-26" value="cambiar_precio(cod)" style="endArrow=block;endFill=1;html=1;edgeStyle=orthogonalEdgeStyle;align=left;verticalAlign=top;rounded=0;" edge="1" parent="1">
          <mxGeometry x="-0.4225" y="25" relative="1" as="geometry">
            <mxPoint x="85" y="710" as="sourcePoint" />
            <mxPoint x="414" y="710" as="targetPoint" />
            <Array as="points">
              <mxPoint x="250" y="710" />
              <mxPoint x="250" y="710" />
            </Array>
            <mxPoint y="1" as="offset" />
          </mxGeometry>
        </mxCell>
        <mxCell id="YCMlPNBW1ywjKCrmXprJ-27" value="mensaje_modificar_producto(cod_prod)" style="endArrow=block;endFill=1;html=1;edgeStyle=orthogonalEdgeStyle;align=left;verticalAlign=top;rounded=0;" edge="1" parent="1">
          <mxGeometry x="0.4225" y="-20" relative="1" as="geometry">
            <mxPoint x="414" y="750" as="sourcePoint" />
            <mxPoint x="85" y="750" as="targetPoint" />
            <Array as="points">
              <mxPoint x="170" y="750" />
              <mxPoint x="170" y="750" />
            </Array>
            <mxPoint as="offset" />
          </mxGeometry>
        </mxCell>
        <mxCell id="YCMlPNBW1ywjKCrmXprJ-28" value="" style="endArrow=block;endFill=1;html=1;edgeStyle=orthogonalEdgeStyle;align=left;verticalAlign=top;rounded=0;" edge="1" parent="1">
          <mxGeometry x="-0.4225" y="25" relative="1" as="geometry">
            <mxPoint x="85" y="780" as="sourcePoint" />
            <mxPoint x="414" y="780" as="targetPoint" />
            <Array as="points">
              <mxPoint x="140" y="780.5" />
              <mxPoint x="140" y="780.5" />
            </Array>
            <mxPoint y="1" as="offset" />
          </mxGeometry>
        </mxCell>
        <mxCell id="YCMlPNBW1ywjKCrmXprJ-29" value="&lt;span style=&quot;font-size: 11px; background-color: rgb(255, 255, 255);&quot;&gt;modificar_producto(cod_prod)&lt;/span&gt;" style="text;whiteSpace=wrap;html=1;" vertex="1" parent="1">
          <mxGeometry x="150" y="760" width="230" height="40" as="geometry" />
        </mxCell>
        <mxCell id="YCMlPNBW1ywjKCrmXprJ-30" value="mensaje_verificar_login (usuario,contraseÃ±a)" style="endArrow=block;endFill=1;html=1;edgeStyle=orthogonalEdgeStyle;align=left;verticalAlign=top;rounded=0;" edge="1" parent="1">
          <mxGeometry x="0.4225" y="-20" relative="1" as="geometry">
            <mxPoint x="414" y="400" as="sourcePoint" />
            <mxPoint x="85" y="400" as="targetPoint" />
            <Array as="points">
              <mxPoint x="150" y="400" />
              <mxPoint x="150" y="400" />
            </Array>
            <mxPoint as="offset" />
          </mxGeometry>
        </mxCell>
        <mxCell id="YCMlPNBW1ywjKCrmXprJ-31" value="loguearse(Usuario,contraseÃ±a)" style="endArrow=block;endFill=1;html=1;edgeStyle=orthogonalEdgeStyle;align=left;verticalAlign=top;rounded=0;" edge="1" parent="1">
          <mxGeometry x="-0.4216" y="20" relative="1" as="geometry">
            <mxPoint x="85" y="430" as="sourcePoint" />
            <mxPoint x="414" y="430" as="targetPoint" />
            <Array as="points">
              <mxPoint x="150" y="430" />
              <mxPoint x="150" y="430" />
            </Array>
            <mxPoint as="offset" />
          </mxGeometry>
        </mxCell>
        <mxCell id="YCMlPNBW1ywjKCrmXprJ-32" value="mensaje_borrar_producto(cod)" style="endArrow=block;endFill=1;html=1;edgeStyle=orthogonalEdgeStyle;align=left;verticalAlign=top;rounded=0;" edge="1" parent="1">
          <mxGeometry x="0.4225" y="-20" relative="1" as="geometry">
            <mxPoint x="414" y="810" as="sourcePoint" />
            <mxPoint x="85" y="810" as="targetPoint" />
            <Array as="points">
              <mxPoint x="170" y="810" />
              <mxPoint x="170" y="810" />
            </Array>
            <mxPoint as="offset" />
          </mxGeometry>
        </mxCell>
        <mxCell id="YCMlPNBW1ywjKCrmXprJ-33" value="borrar_producto(cod)" style="endArrow=block;endFill=1;html=1;edgeStyle=orthogonalEdgeStyle;align=left;verticalAlign=top;rounded=0;" edge="1" parent="1">
          <mxGeometry x="-0.4225" y="25" relative="1" as="geometry">
            <mxPoint x="80" y="839.5" as="sourcePoint" />
            <mxPoint x="409" y="839.5" as="targetPoint" />
            <Array as="points">
              <mxPoint x="245" y="839.5" />
              <mxPoint x="245" y="839.5" />
            </Array>
            <mxPoint y="1" as="offset" />
          </mxGeometry>
        </mxCell>
        <mxCell id="YCMlPNBW1ywjKCrmXprJ-34" value="mensaje_login(usuario,contraseÃ±a)" style="endArrow=block;endFill=1;html=1;edgeStyle=orthogonalEdgeStyle;align=left;verticalAlign=top;rounded=0;" edge="1" parent="1">
          <mxGeometry x="0.4225" y="-20" relative="1" as="geometry">
            <mxPoint x="414" y="990" as="sourcePoint" />
            <mxPoint x="-210" y="990" as="targetPoint" />
            <Array as="points">
              <mxPoint x="290.5" y="990" />
              <mxPoint x="290.5" y="990" />
            </Array>
            <mxPoint as="offset" />
          </mxGeometry>
        </mxCell>
        <mxCell id="YCMlPNBW1ywjKCrmXprJ-35" value="loguearse(usuario,contraseÃ±a)" style="endArrow=block;endFill=1;html=1;edgeStyle=orthogonalEdgeStyle;align=left;verticalAlign=top;rounded=0;" edge="1" parent="1" source="YCMlPNBW1ywjKCrmXprJ-4" target="YCMlPNBW1ywjKCrmXprJ-1">
          <mxGeometry x="-0.4341" y="20" relative="1" as="geometry">
            <mxPoint x="-210" y="960" as="sourcePoint" />
            <mxPoint x="414" y="960" as="targetPoint" />
            <Array as="points">
              <mxPoint x="-50" y="1030" />
              <mxPoint x="-50" y="1030" />
            </Array>
            <mxPoint as="offset" />
          </mxGeometry>
        </mxCell>
        <mxCell id="YCMlPNBW1ywjKCrmXprJ-36" value="mprimir_ticket(lista_productos,num_pedido,fecha,precio_final)" style="endArrow=block;endFill=1;html=1;edgeStyle=orthogonalEdgeStyle;align=left;verticalAlign=top;rounded=0;" edge="1" parent="1">
          <mxGeometry x="0.4225" y="-20" relative="1" as="geometry">
            <mxPoint x="419" y="1350" as="sourcePoint" />
            <mxPoint x="-200" y="1350" as="targetPoint" />
            <Array as="points">
              <mxPoint x="135" y="1350" />
              <mxPoint x="135" y="1350" />
            </Array>
            <mxPoint as="offset" />
          </mxGeometry>
        </mxCell>
        <mxCell id="YCMlPNBW1ywjKCrmXprJ-37" value="return(OK)" style="html=1;verticalAlign=bottom;endArrow=open;dashed=1;endSize=8;edgeStyle=elbowEdgeStyle;elbow=vertical;curved=0;rounded=0;" edge="1" parent="1">
          <mxGeometry relative="1" as="geometry">
            <mxPoint x="777" y="1340" as="sourcePoint" />
            <mxPoint x="414" y="1340" as="targetPoint" />
            <Array as="points">
              <mxPoint x="596" y="1340" />
            </Array>
          </mxGeometry>
        </mxCell>
        <mxCell id="YCMlPNBW1ywjKCrmXprJ-38" value="if estado es falso" style="shape=umlFrame;whiteSpace=wrap;html=1;pointerEvents=0;" vertex="1" parent="1">
          <mxGeometry x="-290" y="1150" width="1090" height="250" as="geometry" />
        </mxCell>
        <mxCell id="YCMlPNBW1ywjKCrmXprJ-39" value="" style="endArrow=block;dashed=1;html=1;rounded=0;exitX=0.009;exitY=0.003;exitDx=0;exitDy=0;exitPerimeter=0;endFill=1;" edge="1" parent="1" source="YCMlPNBW1ywjKCrmXprJ-38" target="YCMlPNBW1ywjKCrmXprJ-4">
          <mxGeometry x="-0.3522" y="130" width="160" relative="1" as="geometry">
            <mxPoint x="-370" y="940" as="sourcePoint" />
            <mxPoint x="-210" y="940" as="targetPoint" />
            <Array as="points">
              <mxPoint x="-280" y="990" />
              <mxPoint x="-260" y="990" />
            </Array>
            <mxPoint x="-50" y="10" as="offset" />
          </mxGeometry>
        </mxCell>
        <mxCell id="YCMlPNBW1ywjKCrmXprJ-40" value="if estado es falso" style="shape=umlFrame;whiteSpace=wrap;html=1;pointerEvents=0;" vertex="1" parent="1">
          <mxGeometry x="20" y="450" width="770" height="410" as="geometry" />
        </mxCell>
        <mxCell id="YCMlPNBW1ywjKCrmXprJ-41" value="" style="endArrow=block;dashed=1;html=1;rounded=0;exitX=0.004;exitY=0.001;exitDx=0;exitDy=0;exitPerimeter=0;endFill=1;" edge="1" parent="1" source="YCMlPNBW1ywjKCrmXprJ-40" target="YCMlPNBW1ywjKCrmXprJ-8">
          <mxGeometry x="-0.3522" y="130" width="160" relative="1" as="geometry">
            <mxPoint x="20" y="381" as="sourcePoint" />
            <mxPoint x="85" y="220" as="targetPoint" />
            <Array as="points">
              <mxPoint x="30" y="430" />
            </Array>
            <mxPoint x="-50" y="10" as="offset" />
          </mxGeometry>
        </mxCell>
        <mxCell id="YCMlPNBW1ywjKCrmXprJ-42" value="guardar_factura(lista_productos,num_pedido,fecha,precio_final)" style="endArrow=block;endFill=1;html=1;edgeStyle=orthogonalEdgeStyle;align=left;verticalAlign=top;rounded=0;" edge="1" parent="1" source="YCMlPNBW1ywjKCrmXprJ-2" target="YCMlPNBW1ywjKCrmXprJ-7">
          <mxGeometry x="-0.881" y="20" relative="1" as="geometry">
            <mxPoint x="480" y="1250" as="sourcePoint" />
            <mxPoint x="640" y="1250" as="targetPoint" />
            <Array as="points">
              <mxPoint x="600" y="1310" />
              <mxPoint x="600" y="1310" />
            </Array>
            <mxPoint as="offset" />
          </mxGeometry>
        </mxCell>
        <mxCell id="YCMlPNBW1ywjKCrmXprJ-43" value="" style="shape=umlLifeline;perimeter=lifelinePerimeter;whiteSpace=wrap;html=1;container=1;dropTarget=0;collapsible=0;recursiveResize=0;outlineConnect=0;portConstraint=eastwest;newEdgeStyle={&quot;edgeStyle&quot;:&quot;elbowEdgeStyle&quot;,&quot;elbow&quot;:&quot;vertical&quot;,&quot;curved&quot;:0,&quot;rounded&quot;:0};participant=umlActor;" vertex="1" parent="1">
          <mxGeometry x="-610" y="290" width="20" height="1610" as="geometry" />
        </mxCell>
        <mxCell id="YCMlPNBW1ywjKCrmXprJ-44" value="" style="html=1;points=[];perimeter=orthogonalPerimeter;outlineConnect=0;targetShapes=umlLifeline;portConstraint=eastwest;newEdgeStyle={&quot;edgeStyle&quot;:&quot;elbowEdgeStyle&quot;,&quot;elbow&quot;:&quot;vertical&quot;,&quot;curved&quot;:0,&quot;rounded&quot;:0};" vertex="1" parent="YCMlPNBW1ywjKCrmXprJ-43">
          <mxGeometry x="5" y="1280" width="10" height="250" as="geometry" />
        </mxCell>
        <mxCell id="YCMlPNBW1ywjKCrmXprJ-48" value="registrarse" style="endArrow=block;endFill=1;html=1;edgeStyle=orthogonalEdgeStyle;align=left;verticalAlign=top;rounded=0;" edge="1" parent="1">
          <mxGeometry x="-0.4341" y="20" relative="1" as="geometry">
            <mxPoint x="-595.5" y="1610" as="sourcePoint" />
            <mxPoint x="418.5" y="1610" as="targetPoint" />
            <Array as="points">
              <mxPoint x="-95" y="1610" />
              <mxPoint x="-95" y="1610" />
            </Array>
            <mxPoint as="offset" />
          </mxGeometry>
        </mxCell>
        <mxCell id="YCMlPNBW1ywjKCrmXprJ-49" value="mensaje_lregistrase()" style="endArrow=block;endFill=1;html=1;edgeStyle=orthogonalEdgeStyle;align=left;verticalAlign=top;rounded=0;" edge="1" parent="1" source="YCMlPNBW1ywjKCrmXprJ-55">
          <mxGeometry x="0.4225" y="-20" relative="1" as="geometry">
            <mxPoint x="259" y="1590" as="sourcePoint" />
            <mxPoint x="-595.5" y="1580" as="targetPoint" />
            <Array as="points">
              <mxPoint x="-88" y="1580" />
              <mxPoint x="-88" y="1581" />
            </Array>
            <mxPoint as="offset" />
          </mxGeometry>
        </mxCell>
        <mxCell id="YCMlPNBW1ywjKCrmXprJ-50" value="ingresos_de_caja()" style="endArrow=block;endFill=1;html=1;edgeStyle=orthogonalEdgeStyle;align=left;verticalAlign=top;rounded=0;" edge="1" parent="1">
          <mxGeometry x="-0.4341" y="20" relative="1" as="geometry">
            <mxPoint x="-190" y="1330" as="sourcePoint" />
            <mxPoint x="429" y="1330" as="targetPoint" />
            <Array as="points">
              <mxPoint x="155" y="1330" />
              <mxPoint x="155" y="1330" />
            </Array>
            <mxPoint as="offset" />
          </mxGeometry>
        </mxCell>
        <mxCell id="YCMlPNBW1ywjKCrmXprJ-51" value="mensaje_recibir_paquete" style="endArrow=block;endFill=1;html=1;edgeStyle=orthogonalEdgeStyle;align=left;verticalAlign=top;rounded=0;" edge="1" parent="1" source="YCMlPNBW1ywjKCrmXprJ-46" target="YCMlPNBW1ywjKCrmXprJ-44">
          <mxGeometry x="0.4225" y="-20" relative="1" as="geometry">
            <mxPoint x="-215" y="1650" as="sourcePoint" />
            <mxPoint x="-834" y="1650" as="targetPoint" />
            <Array as="points">
              <mxPoint x="-395" y="1640" />
              <mxPoint x="-395" y="1640" />
            </Array>
            <mxPoint as="offset" />
          </mxGeometry>
        </mxCell>
        <mxCell id="YCMlPNBW1ywjKCrmXprJ-52" value="recibir_destino" style="endArrow=block;endFill=1;html=1;edgeStyle=orthogonalEdgeStyle;align=left;verticalAlign=top;rounded=0;" edge="1" parent="1" source="YCMlPNBW1ywjKCrmXprJ-43" target="YCMlPNBW1ywjKCrmXprJ-46">
          <mxGeometry x="-0.4341" y="20" relative="1" as="geometry">
            <mxPoint x="-600.5" y="1750" as="sourcePoint" />
            <mxPoint x="-220" y="1750" as="targetPoint" />
            <Array as="points">
              <mxPoint x="-310" y="1720" />
              <mxPoint x="-310" y="1720" />
            </Array>
            <mxPoint as="offset" />
          </mxGeometry>
        </mxCell>
        <mxCell id="YCMlPNBW1ywjKCrmXprJ-53" value="mensaje_recibir_destino" style="endArrow=block;endFill=1;html=1;edgeStyle=orthogonalEdgeStyle;align=left;verticalAlign=top;rounded=0;" edge="1" parent="1" source="YCMlPNBW1ywjKCrmXprJ-46" target="YCMlPNBW1ywjKCrmXprJ-44">
          <mxGeometry x="0.4225" y="-20" relative="1" as="geometry">
            <mxPoint x="-230" y="1692" as="sourcePoint" />
            <mxPoint x="-630" y="1690" as="targetPoint" />
            <Array as="points">
              <mxPoint x="-300" y="1695" />
              <mxPoint x="-300" y="1695" />
            </Array>
            <mxPoint as="offset" />
          </mxGeometry>
        </mxCell>
        <mxCell id="YCMlPNBW1ywjKCrmXprJ-54" value="informar_paquete_enregado" style="endArrow=block;endFill=1;html=1;edgeStyle=orthogonalEdgeStyle;align=left;verticalAlign=top;rounded=0;" edge="1" parent="1" target="YCMlPNBW1ywjKCrmXprJ-47">
          <mxGeometry x="-0.4341" y="20" relative="1" as="geometry">
            <mxPoint x="-600" y="1800" as="sourcePoint" />
            <mxPoint x="-215" y="1800" as="targetPoint" />
            <Array as="points">
              <mxPoint x="-600" y="1801" />
            </Array>
            <mxPoint as="offset" />
          </mxGeometry>
        </mxCell>
        <mxCell id="YCMlPNBW1ywjKCrmXprJ-55" value="" style="html=1;points=[];perimeter=orthogonalPerimeter;outlineConnect=0;targetShapes=umlLifeline;portConstraint=eastwest;newEdgeStyle={&quot;edgeStyle&quot;:&quot;elbowEdgeStyle&quot;,&quot;elbow&quot;:&quot;vertical&quot;,&quot;curved&quot;:0,&quot;rounded&quot;:0};" vertex="1" parent="1">
          <mxGeometry x="419" y="1570" width="10" height="80" as="geometry" />
        </mxCell>
        <mxCell id="YCMlPNBW1ywjKCrmXprJ-57" value="mensaje_infromar_paquete_entregado()" style="endArrow=block;endFill=1;html=1;edgeStyle=orthogonalEdgeStyle;align=left;verticalAlign=top;rounded=0;" edge="1" parent="1" source="YCMlPNBW1ywjKCrmXprJ-1" target="YCMlPNBW1ywjKCrmXprJ-43">
          <mxGeometry x="0.4225" y="-20" relative="1" as="geometry">
            <mxPoint x="10" y="1770" as="sourcePoint" />
            <mxPoint x="-370" y="1770" as="targetPoint" />
            <Array as="points">
              <mxPoint x="-70" y="1770" />
              <mxPoint x="-70" y="1770" />
            </Array>
            <mxPoint as="offset" />
          </mxGeometry>
        </mxCell>
        <mxCell id="YCMlPNBW1ywjKCrmXprJ-58" value="if estado es falso" style="shape=umlFrame;whiteSpace=wrap;html=1;pointerEvents=0;" vertex="1" parent="1">
          <mxGeometry x="-700" y="1630" width="1210" height="230" as="geometry" />
        </mxCell>
        <mxCell id="YCMlPNBW1ywjKCrmXprJ-59" value="" style="endArrow=block;dashed=1;html=1;rounded=0;exitX=0.019;exitY=0.004;exitDx=0;exitDy=0;exitPerimeter=0;endFill=1;" edge="1" parent="1" source="YCMlPNBW1ywjKCrmXprJ-58" target="YCMlPNBW1ywjKCrmXprJ-44">
          <mxGeometry x="-0.3522" y="130" width="160" relative="1" as="geometry">
            <mxPoint x="-675" y="1610" as="sourcePoint" />
            <mxPoint x="-610" y="1449" as="targetPoint" />
            <Array as="points">
              <mxPoint x="-677" y="1610" />
            </Array>
            <mxPoint x="-50" y="10" as="offset" />
          </mxGeometry>
        </mxCell>
      </root>
    </mxGraphModel>
  </diagram>
</mxfile>
